<?xml version="1.0" encoding="UTF-8" standalone="no"?>
<!-- Created with Inkscape (http://www.inkscape.org/) -->

<svg
   xmlns:dc="http://purl.org/dc/elements/1.1/"
   xmlns:cc="http://creativecommons.org/ns#"
   xmlns:rdf="http://www.w3.org/1999/02/22-rdf-syntax-ns#"
   xmlns:svg="http://www.w3.org/2000/svg"
   xmlns="http://www.w3.org/2000/svg"
   xmlns:sodipodi="http://sodipodi.sourceforge.net/DTD/sodipodi-0.dtd"
   xmlns:inkscape="http://www.inkscape.org/namespaces/inkscape"
   width="200mm"
   height="200mm"
   viewBox="0 0 708.66142 708.66141"
   id="svg2"
   version="1.1"
   inkscape:version="0.91 r13725"
   sodipodi:docname="rat-dead.svg">
  <defs
     id="defs4" />
  <sodipodi:namedview
     id="base"
     pagecolor="#ffffff"
     bordercolor="#666666"
     borderopacity="1.0"
     inkscape:pageopacity="0.0"
     inkscape:pageshadow="2"
     inkscape:zoom="0.7"
     inkscape:cx="643.53396"
     inkscape:cy="220.85147"
     inkscape:document-units="px"
     inkscape:current-layer="layer1"
     showgrid="false"
     inkscape:window-width="1920"
     inkscape:window-height="1017"
     inkscape:window-x="-8"
     inkscape:window-y="-8"
     inkscape:window-maximized="1" />
  <metadata
     id="metadata7">
    <rdf:RDF>
      <cc:Work
         rdf:about="">
        <dc:format>image/svg+xml</dc:format>
        <dc:type
           rdf:resource="http://purl.org/dc/dcmitype/StillImage" />
        <dc:title></dc:title>
      </cc:Work>
    </rdf:RDF>
  </metadata>
  <g
     inkscape:label="Layer 1"
     inkscape:groupmode="layer"
     id="layer1"
     transform="translate(0,-343.70079)">
    <g
       id="g6083"
       transform="matrix(0.92779317,0,0,0.92779317,26.462653,52.781468)">
      <ellipse
         transform="matrix(0.97846789,0.20639912,-0.25643873,0.96656049,0,0)"
         ry="77.650299"
         rx="33.863159"
         cy="859.34454"
         cx="600.57043"
         id="path4171-4-6"
         style="opacity:1;fill:#5a5a5a;fill-opacity:1;stroke:none;stroke-width:20;stroke-linecap:round;stroke-linejoin:round;stroke-miterlimit:4;stroke-dasharray:none;stroke-opacity:1" />
      <path
         sodipodi:nodetypes="csszzzzczzzssssscc"
         inkscape:connector-curvature="0"
         id="path4304"
         d="m 546.49252,839.68394 c 0,0 14.14214,-79.00308 14.14214,-83.39214 0,-4.38906 -21.56538,-63.84537 -45.45687,-88.65902 -21.15532,-21.97187 -55.18332,-28.12969 -81.82235,-48.27966 -26.63903,-20.14996 -64.65786,-46.3341 -75.76145,-72.8584 -11.10359,-26.52429 -10.1909,-54.12005 3.03046,-71.10277 13.22136,-16.98273 27.49901,-18.6892 54.54824,-21.06749 27.04923,-2.3783 101.01525,19.31187 101.01525,19.31187 0,0 -73.71329,-3.97651 -91.92388,2.63343 -18.21059,6.60993 -15.37185,5.49197 -19.1929,15.80062 -3.82105,10.30865 -3.54606,22.49065 9.09138,41.25716 12.63744,18.76651 49.86606,40.29818 77.78174,57.05778 27.90331,16.75218 65.67409,21.53118 88.89343,43.01279 28.35589,26.23375 42.71822,62.69548 53.53808,97.43714 8.47376,27.20853 10.63857,56.17035 8.08122,84.26996 -3.22577,35.44402 -2.23079,76.91649 -29.29442,103.58182 -17.41392,17.15763 -73.74114,24.57873 -73.74114,24.57873 z"
         style="fill:#c07979;fill-opacity:1;fill-rule:evenodd;stroke:none;stroke-width:1px;stroke-linecap:butt;stroke-linejoin:miter;stroke-opacity:1" />
      <ellipse
         transform="matrix(0.99902473,-0.04415409,-0.04998004,0.99875022,0,0)"
         ry="89.153931"
         rx="34.254253"
         cy="947.37067"
         cx="268.7135"
         id="path4171-4-7-8"
         style="opacity:1;fill:#5a5a5a;fill-opacity:1;stroke:none;stroke-width:20;stroke-linecap:round;stroke-linejoin:round;stroke-miterlimit:4;stroke-dasharray:none;stroke-opacity:1" />
      <ellipse
         style="opacity:1;fill:#a0a0a0;fill-opacity:1;stroke:none;stroke-width:20;stroke-linecap:round;stroke-linejoin:round;stroke-miterlimit:4;stroke-dasharray:none;stroke-opacity:1"
         id="ellipse4264"
         cx="-59.206932"
         cy="526.99518"
         rx="43.436562"
         ry="94.954338"
         transform="matrix(-0.98953917,0.14426445,0.14426445,0.98953917,0,0)" />
      <ellipse
         transform="matrix(-0.98647009,0.16394136,0.12686008,0.99192062,0,0)"
         ry="77.757492"
         rx="31.375999"
         cy="525.62006"
         cx="-65.36412"
         id="ellipse4266"
         style="opacity:1;fill:#7b7b7b;fill-opacity:1;stroke:none;stroke-width:20;stroke-linecap:round;stroke-linejoin:round;stroke-miterlimit:4;stroke-dasharray:none;stroke-opacity:1" />
      <ellipse
         transform="matrix(0.98953917,0.14426445,-0.14426445,0.98953917,0,0)"
         ry="94.954338"
         rx="43.436562"
         cy="452.34363"
         cx="452.84201"
         id="path4171"
         style="opacity:1;fill:#a0a0a0;fill-opacity:1;stroke:none;stroke-width:20;stroke-linecap:round;stroke-linejoin:round;stroke-miterlimit:4;stroke-dasharray:none;stroke-opacity:1" />
      <path
         sodipodi:nodetypes="sssss"
         inkscape:connector-curvature="0"
         id="rect4188"
         d="m 248.61112,668.97826 c 84.76036,-49.67542 232.97175,15.01424 295.36826,83.48576 41.59833,45.6484 57.47607,129.65261 9.52801,170.88483 -70.20146,60.36879 -233.03153,59.03339 -304.89627,0 -72.98761,-59.9557 -84.02659,-205.12521 0,-254.37059 z"
         style="opacity:1;fill:#7b7b7b;fill-opacity:1;stroke:none;stroke-width:20;stroke-linecap:round;stroke-linejoin:round;stroke-miterlimit:4;stroke-dasharray:none;stroke-opacity:1" />
      <ellipse
         style="opacity:1;fill:#7b7b7b;fill-opacity:1;stroke:none;stroke-width:20;stroke-linecap:round;stroke-linejoin:round;stroke-miterlimit:4;stroke-dasharray:none;stroke-opacity:1"
         id="ellipse4262"
         cx="448.27789"
         cy="440.72711"
         rx="31.375999"
         ry="77.757492"
         transform="matrix(0.98647009,0.16394136,-0.12686008,0.99192062,0,0)" />
      <path
         sodipodi:nodetypes="ccsc"
         inkscape:connector-curvature="0"
         id="rect4414"
         d="m 288.1622,683.25846 46.23176,-4.40173 c 4.71389,40.61233 2.09827,146.95614 -6.12526,147.73911 -7.0265,0.66899 -36.54119,-105.89062 -40.1065,-143.33738 z"
         style="opacity:1;fill:#ffffff;fill-opacity:1;stroke:none;stroke-width:20;stroke-linecap:round;stroke-linejoin:round;stroke-miterlimit:4;stroke-dasharray:none;stroke-opacity:1" />
      <path
         style="opacity:1;fill:#ffffff;fill-opacity:1;stroke:none;stroke-width:20;stroke-linecap:round;stroke-linejoin:round;stroke-miterlimit:4;stroke-dasharray:none;stroke-opacity:1"
         d="m 251.01419,683.25846 -46.23176,-4.40173 c -4.71389,40.61233 -2.09827,146.95614 6.12526,147.73911 7.0265,0.66899 36.54119,-105.89062 40.1065,-143.33738 z"
         id="path4426"
         inkscape:connector-curvature="0"
         sodipodi:nodetypes="ccsc" />
      <path
         sodipodi:nodetypes="sssss"
         inkscape:connector-curvature="0"
         id="rect4168"
         d="m 137.22504,529.1032 c 47.5818,-65.32256 193.0014,-65.95173 242.4366,-2.02031 50.76301,65.64859 2.63704,191.84565 -64.64976,240.41631 -28.44116,20.53012 -77.39976,15.51512 -105.05586,-6.06092 C 145.97306,711.52167 89.445411,594.69736 137.22504,529.1032 Z"
         style="opacity:1;fill:#a0a0a0;fill-opacity:1;stroke:none;stroke-width:20;stroke-linecap:round;stroke-linejoin:round;stroke-miterlimit:4;stroke-dasharray:none;stroke-opacity:1" />
      <ellipse
         transform="matrix(0.96928638,0.24593479,-0.30996232,0.95074884,0,0)"
         ry="89.420334"
         rx="38.4496"
         cy="812.16986"
         cx="754.14771"
         id="path4171-4"
         style="opacity:1;fill:#a0a0a0;fill-opacity:1;stroke:none;stroke-width:20;stroke-linecap:round;stroke-linejoin:round;stroke-miterlimit:4;stroke-dasharray:none;stroke-opacity:1" />
      <circle
         r="48.487324"
         cy="757.39771"
         cx="268.70059"
         id="path4225"
         style="opacity:1;fill:#000000;fill-opacity:1;stroke:none;stroke-width:20;stroke-linecap:round;stroke-linejoin:round;stroke-miterlimit:4;stroke-dasharray:none;stroke-opacity:1" />
      <ellipse
         ry="104.04572"
         rx="90.913727"
         cy="868.05402"
         cx="485.73981"
         id="path4272"
         style="opacity:1;fill:#b9b9b9;fill-opacity:1;stroke:none;stroke-width:20;stroke-linecap:round;stroke-linejoin:round;stroke-miterlimit:4;stroke-dasharray:none;stroke-opacity:1" />
      <ellipse
         transform="matrix(0.97635724,-0.21616324,0.15063806,0.98858898,0,0)"
         ry="89.420334"
         rx="38.4496"
         cy="972.33124"
         cx="125.19031"
         id="path4171-4-7"
         style="opacity:1;fill:#a0a0a0;fill-opacity:1;stroke:none;stroke-width:20;stroke-linecap:round;stroke-linejoin:round;stroke-miterlimit:4;stroke-dasharray:none;stroke-opacity:1" />
      <rect
         transform="matrix(0.57940444,0.81504018,-0.83415136,0.55153559,0,0)"
         y="47.836388"
         x="701.42249"
         height="85.191963"
         width="8.9692497"
         id="rect4428"
         style="opacity:1;fill:#000000;fill-opacity:1;stroke:none;stroke-width:20;stroke-linecap:round;stroke-linejoin:round;stroke-miterlimit:4;stroke-dasharray:none;stroke-opacity:1" />
      <rect
         style="opacity:1;fill:#000000;fill-opacity:1;stroke:none;stroke-width:20;stroke-linecap:round;stroke-linejoin:round;stroke-miterlimit:4;stroke-dasharray:none;stroke-opacity:1"
         id="rect4439"
         width="8.9692497"
         height="85.191963"
         x="333.25925"
         y="591.89526"
         transform="matrix(-0.57940444,0.81504018,0.83415136,0.55153559,0,0)" />
      <rect
         transform="matrix(-0.57940444,0.81504018,0.83415136,0.55153559,0,0)"
         y="485.87952"
         x="404.99985"
         height="85.191963"
         width="8.9692497"
         id="rect4441"
         style="opacity:1;fill:#000000;fill-opacity:1;stroke:none;stroke-width:20;stroke-linecap:round;stroke-linejoin:round;stroke-miterlimit:4;stroke-dasharray:none;stroke-opacity:1" />
      <rect
         style="opacity:1;fill:#000000;fill-opacity:1;stroke:none;stroke-width:20;stroke-linecap:round;stroke-linejoin:round;stroke-miterlimit:4;stroke-dasharray:none;stroke-opacity:1"
         id="rect4443"
         width="8.9692497"
         height="85.191963"
         x="629.68188"
         y="153.85214"
         transform="matrix(0.57940444,0.81504018,-0.83415136,0.55153559,0,0)" />
    </g>
  </g>
</svg>
