<?xml version="1.0" encoding="UTF-8" standalone="no"?>
<!-- Created with Inkscape (http://www.inkscape.org/) -->

<svg
   xmlns:dc="http://purl.org/dc/elements/1.1/"
   xmlns:cc="http://creativecommons.org/ns#"
   xmlns:rdf="http://www.w3.org/1999/02/22-rdf-syntax-ns#"
   xmlns:svg="http://www.w3.org/2000/svg"
   xmlns="http://www.w3.org/2000/svg"
   xmlns:sodipodi="http://sodipodi.sourceforge.net/DTD/sodipodi-0.dtd"
   xmlns:inkscape="http://www.inkscape.org/namespaces/inkscape"
   width="200mm"
   height="200mm"
   viewBox="0 0 708.66142 708.66141"
   id="svg2"
   version="1.1"
   inkscape:version="0.91 r13725"
   sodipodi:docname="rat.svg">
  <defs
     id="defs4" />
  <sodipodi:namedview
     id="base"
     pagecolor="#ffffff"
     bordercolor="#666666"
     borderopacity="1.0"
     inkscape:pageopacity="0.0"
     inkscape:pageshadow="2"
     inkscape:zoom="1.4"
     inkscape:cx="364.08015"
     inkscape:cy="371.71464"
     inkscape:document-units="px"
     inkscape:current-layer="layer1"
     showgrid="false"
     inkscape:window-width="1920"
     inkscape:window-height="1017"
     inkscape:window-x="-8"
     inkscape:window-y="-8"
     inkscape:window-maximized="1" />
  <metadata
     id="metadata7">
    <rdf:RDF>
      <cc:Work
         rdf:about="">
        <dc:format>image/svg+xml</dc:format>
        <dc:type
           rdf:resource="http://purl.org/dc/dcmitype/StillImage" />
        <dc:title />
      </cc:Work>
    </rdf:RDF>
  </metadata>
  <g
     inkscape:label="Layer 1"
     inkscape:groupmode="layer"
     id="layer1"
     transform="translate(0,-343.70079)">
    <ellipse
       style="opacity:1;fill:#5a5a5a;fill-opacity:1;stroke:none;stroke-width:20;stroke-linecap:round;stroke-linejoin:round;stroke-miterlimit:4;stroke-dasharray:none;stroke-opacity:1"
       id="path4171-4-6"
       cx="1005.8763"
       cy="66.15863"
       rx="30.719393"
       ry="70.441452"
       transform="matrix(0.42341341,0.90593658,-0.92650999,0.37627018,0,0)" />
    <path
       style="fill:#c07979;fill-opacity:1;fill-rule:evenodd;stroke:none;stroke-width:1px;stroke-linecap:butt;stroke-linejoin:miter;stroke-opacity:1"
       d="m 529.78101,821.56966 c 0,0 12.82922,-71.66864 12.82922,-75.65023 0,-3.98159 -19.5633,-57.91814 -41.23677,-80.42816 -19.19132,-19.93205 -50.06025,-25.5182 -74.22618,-43.7975 -24.16593,-18.27929 -58.6552,-42.03256 -68.72796,-66.09442 -10.07276,-24.06184 -9.2448,-49.09569 2.74912,-64.50178 11.99393,-15.40609 24.94608,-16.95414 49.48413,-19.11164 24.53805,-2.1575 91.63726,17.51901 91.63726,17.51901 0,0 -66.86994,-3.60734 -83.38991,2.38895 -16.51997,5.99628 -13.94477,4.98211 -17.41108,14.33373 -3.46632,9.35163 -3.21686,20.40268 8.24736,37.42696 11.46421,17.02427 45.23663,36.557 70.56069,51.76068 25.31284,15.19696 59.57708,19.53229 80.6408,39.0196 25.7234,23.79828 38.75237,56.875 48.56774,88.39134 7.68708,24.68256 9.65092,50.95564 7.33098,76.44656 -2.92629,32.15349 -2.02368,69.77576 -26.5748,93.96555 -15.79726,15.56476 -66.89521,22.29691 -66.89521,22.29691 z"
       id="path4304"
       inkscape:connector-curvature="0"
       sodipodi:nodetypes="csszzzzczzzssssscc" />
    <ellipse
       style="opacity:1;fill:#5a5a5a;fill-opacity:1;stroke:none;stroke-width:20;stroke-linecap:round;stroke-linejoin:round;stroke-miterlimit:4;stroke-dasharray:none;stroke-opacity:1"
       id="path4171-4-7-8"
       cx="710.87695"
       cy="657.06219"
       rx="31.074179"
       ry="80.877113"
       transform="matrix(0.85542911,0.51791991,-0.59606136,0.80293888,0,0)" />
    <ellipse
       transform="matrix(-0.98953917,0.14426445,0.14426445,0.98953917,0,0)"
       ry="86.13903"
       rx="39.404026"
       cy="542.1925"
       cx="-78.745064"
       id="ellipse4264"
       style="opacity:1;fill:#a0a0a0;fill-opacity:1;stroke:none;stroke-width:20;stroke-linecap:round;stroke-linejoin:round;stroke-miterlimit:4;stroke-dasharray:none;stroke-opacity:1" />
    <ellipse
       style="opacity:1;fill:#7b7b7b;fill-opacity:1;stroke:none;stroke-width:20;stroke-linecap:round;stroke-linejoin:round;stroke-miterlimit:4;stroke-dasharray:none;stroke-opacity:1"
       id="ellipse4266"
       cx="-85.471519"
       cy="541.47626"
       rx="28.463135"
       ry="70.538696"
       transform="matrix(-0.98647009,0.16394136,0.12686008,0.99192062,0,0)" />
    <ellipse
       style="opacity:1;fill:#a0a0a0;fill-opacity:1;stroke:none;stroke-width:20;stroke-linecap:round;stroke-linejoin:round;stroke-miterlimit:4;stroke-dasharray:none;stroke-opacity:1"
       id="path4171"
       cx="453.10159"
       cy="464.65466"
       rx="39.404026"
       ry="86.13903"
       transform="matrix(0.98953917,0.14426445,-0.14426445,0.98953917,0,0)" />
    <path
       style="opacity:1;fill:#7b7b7b;fill-opacity:1;stroke:none;stroke-width:20;stroke-linecap:round;stroke-linejoin:round;stroke-miterlimit:4;stroke-dasharray:none;stroke-opacity:1"
       d="m 259.55413,667.93231 c 76.89144,-48.51942 211.34327,14.66485 267.94706,81.54297 37.73645,44.58612 52.14014,126.63546 8.64345,166.90816 -63.68414,58.96395 -211.3975,57.65963 -276.59051,0 -66.21163,-58.56047 -76.22578,-200.35173 0,-248.45113 z"
       id="rect4188"
       inkscape:connector-curvature="0"
       sodipodi:nodetypes="sssss" />
    <ellipse
       transform="matrix(0.98647009,0.16394136,-0.12686008,0.99192062,0,0)"
       ry="70.538696"
       rx="28.463135"
       cy="453.30103"
       cx="448.02982"
       id="ellipse4262"
       style="opacity:1;fill:#7b7b7b;fill-opacity:1;stroke:none;stroke-width:20;stroke-linecap:round;stroke-linejoin:round;stroke-miterlimit:4;stroke-dasharray:none;stroke-opacity:1" />
    <path
       style="opacity:1;fill:#ffffff;fill-opacity:1;stroke:none;stroke-width:20;stroke-linecap:round;stroke-linejoin:round;stroke-miterlimit:4;stroke-dasharray:none;stroke-opacity:1"
       d="m 295.4334,679.66631 41.93972,-3.99309 c 4.27627,36.84199 1.90347,133.31312 -5.55661,134.02341 -6.37417,0.60688 -33.1488,-96.06002 -36.38311,-130.03032 z"
       id="rect4414"
       inkscape:connector-curvature="0"
       sodipodi:nodetypes="ccsc" />
    <path
       sodipodi:nodetypes="ccsc"
       inkscape:connector-curvature="0"
       id="path4426"
       d="m 261.73411,679.66631 -41.93973,-3.99309 c -4.27626,36.84199 -1.90347,133.31312 5.55661,134.02341 6.37418,0.60688 33.1488,-96.06002 36.38312,-130.03032 z"
       style="opacity:1;fill:#ffffff;fill-opacity:1;stroke:none;stroke-width:20;stroke-linecap:round;stroke-linejoin:round;stroke-miterlimit:4;stroke-dasharray:none;stroke-opacity:1" />
    <path
       style="opacity:1;fill:#a0a0a0;fill-opacity:1;stroke:none;stroke-width:20;stroke-linecap:round;stroke-linejoin:round;stroke-miterlimit:4;stroke-dasharray:none;stroke-opacity:1"
       d="m 158.50884,539.82241 c 43.16443,-59.25818 175.08366,-59.82894 219.92943,-1.83275 46.05031,59.55395 2.39222,174.03521 -58.64785,218.0967 -25.80076,18.62416 -70.21417,14.07474 -95.30275,-5.49824 C 166.44472,705.30564 115.16495,599.32699 158.50884,539.82241 Z"
       id="rect4168"
       inkscape:connector-curvature="0"
       sodipodi:nodetypes="sssss" />
    <ellipse
       style="opacity:1;fill:#a0a0a0;fill-opacity:1;stroke:none;stroke-width:20;stroke-linecap:round;stroke-linejoin:round;stroke-miterlimit:4;stroke-dasharray:none;stroke-opacity:1"
       id="path4171-4"
       cx="1055.3668"
       cy="26.499947"
       rx="34.880043"
       ry="81.11879"
       transform="matrix(0.43067492,0.90250713,-0.92919371,0.36959308,0,0)" />
    <ellipse
       style="opacity:1;fill:#000000;fill-opacity:1;stroke:none;stroke-width:20;stroke-linecap:round;stroke-linejoin:round;stroke-miterlimit:4;stroke-dasharray:none;stroke-opacity:1"
       id="path4208"
       cx="339.17551"
       cy="624.51996"
       rx="13.74559"
       ry="12.829217" />
    <ellipse
       style="opacity:1;fill:#000000;fill-opacity:1;stroke:none;stroke-width:20;stroke-linecap:round;stroke-linejoin:round;stroke-miterlimit:4;stroke-dasharray:none;stroke-opacity:1"
       id="path4208-2"
       cx="208.13423"
       cy="624.51996"
       rx="13.74559"
       ry="12.829217" />
    <circle
       style="opacity:1;fill:#000000;fill-opacity:1;stroke:none;stroke-width:20;stroke-linecap:round;stroke-linejoin:round;stroke-miterlimit:4;stroke-dasharray:none;stroke-opacity:1"
       id="path4225"
       cx="277.77856"
       cy="746.92267"
       r="43.985889" />
    <ellipse
       style="opacity:1;fill:#7b7b7b;fill-opacity:1;stroke:none;stroke-width:20;stroke-linecap:round;stroke-linejoin:round;stroke-miterlimit:4;stroke-dasharray:none;stroke-opacity:1"
       id="path4171-1"
       cx="688.22528"
       cy="-55.850677"
       rx="7.2799931"
       ry="35.253326"
       transform="matrix(0.41314964,0.91066315,-0.94604536,0.32403423,0,0)" />
    <ellipse
       transform="matrix(-0.41314964,0.91066315,0.94604536,0.32403423,0,0)"
       ry="35.253326"
       rx="7.2799931"
       cy="441.86334"
       cx="513.11987"
       id="ellipse4251"
       style="opacity:1;fill:#7b7b7b;fill-opacity:1;stroke:none;stroke-width:20;stroke-linecap:round;stroke-linejoin:round;stroke-miterlimit:4;stroke-dasharray:none;stroke-opacity:1" />
    <ellipse
       style="opacity:1;fill:#b9b9b9;fill-opacity:1;stroke:none;stroke-width:20;stroke-linecap:round;stroke-linejoin:round;stroke-miterlimit:4;stroke-dasharray:none;stroke-opacity:1"
       id="path4272"
       cx="487.62787"
       cy="870.633"
       rx="82.473534"
       ry="94.386391" />
    <ellipse
       style="opacity:1;fill:#a0a0a0;fill-opacity:1;stroke:none;stroke-width:20;stroke-linecap:round;stroke-linejoin:round;stroke-miterlimit:4;stroke-dasharray:none;stroke-opacity:1"
       id="path4171-4-7"
       cx="566.23914"
       cy="800.04065"
       rx="34.880043"
       ry="81.11879"
       transform="matrix(0.9626874,0.27061589,-0.33414896,0.94252028,0,0)" />
  </g>
</svg>
